  0
SECTION
  2
HEADER
  9
$ANGBASE
  50
0.0
  9
$ANGDIR
  70
  1
  9
$MEASUREMENT
  70
0
  0
ENDSEC
  0
SECTION
  2
TABLES
  0
TABLE
  2
LTYPE
  70
4
  0
LTYPE
  5
40F
  2
CONTINUOUS
  70
0
  3
Solid line
  72
65
  73
0
  40
0.0
  0
LTYPE
  5
410
  2
DASHDOT
 70
0
  3
Dash Dot ____ _ ____ _
 72
65
 73
4
 40
2.0
 49
1.25
 49
-0.25
 49
0.25
 49
-0.25
  0
LTYPE
  5
411
  2
DASHED
 70
0
  3
Dashed __ __ __ __ __
 72
65
 73
2
 40
0.75
 49
0.5
 49
-0.25
  0
LTYPE
  5
43B
  2
DOTTED
 70
0
  3
Dotted .  .  .  .
 72
65
 73
2
 40
0.2
 49
0.0
 49
-0.2
  0
ENDTAB
  0
TABLE
  2
STYLE
  70
4
  0
STYLE
  2
KICAD
  70
0
  40
0
  41
1
  42
1
  50
0
  71
0
  3
isocp.shx
  0
STYLE
  2
KICADB
  70
0
  40
0
  41
1
  42
1
  50
0
  71
0
  3
isocp.shx
  0
STYLE
  2
KICADI
  70
0
  40
0
  41
1
  42
1
  50
15
  71
0
  3
isocp.shx
  0
STYLE
  2
KICADBI
  70
0
  40
0
  41
1
  42
1
  50
15
  71
0
  3
isocp.shx
  0
ENDTAB
  0
TABLE
  2
LAYER
  70
30
  0
LAYER
  2
BLACK
  70
0
  62
7
  6
CONTINUOUS
  0
LAYER
  2
GRAY1
  70
0
  62
251
  6
CONTINUOUS
  0
LAYER
  2
GRAY2
  70
0
  62
8
  6
CONTINUOUS
  0
LAYER
  2
GRAY3
  70
0
  62
9
  6
CONTINUOUS
  0
LAYER
  2
WHITE
  70
0
  62
7
  6
CONTINUOUS
  0
LAYER
  2
LYELLOW
  70
0
  62
51
  6
CONTINUOUS
  0
LAYER
  2
BLUE1
  70
0
  62
178
  6
CONTINUOUS
  0
LAYER
  2
GREEN1
  70
0
  62
98
  6
CONTINUOUS
  0
LAYER
  2
CYAN1
  70
0
  62
138
  6
CONTINUOUS
  0
LAYER
  2
RED1
  70
0
  62
18
  6
CONTINUOUS
  0
LAYER
  2
MAGENTA1
  70
0
  62
228
  6
CONTINUOUS
  0
LAYER
  2
BROWN1
  70
0
  62
58
  6
CONTINUOUS
  0
LAYER
  2
BLUE2
  70
0
  62
5
  6
CONTINUOUS
  0
LAYER
  2
GREEN2
  70
0
  62
3
  6
CONTINUOUS
  0
LAYER
  2
CYAN2
  70
0
  62
4
  6
CONTINUOUS
  0
LAYER
  2
RED2
  70
0
  62
1
  6
CONTINUOUS
  0
LAYER
  2
MAGENTA2
  70
0
  62
6
  6
CONTINUOUS
  0
LAYER
  2
BROWN2
  70
0
  62
54
  6
CONTINUOUS
  0
LAYER
  2
BLUE3
  70
0
  62
171
  6
CONTINUOUS
  0
LAYER
  2
GREEN3
  70
0
  62
91
  6
CONTINUOUS
  0
LAYER
  2
CYAN3
  70
0
  62
131
  6
CONTINUOUS
  0
LAYER
  2
RED3
  70
0
  62
11
  6
CONTINUOUS
  0
LAYER
  2
MAGENTA3
  70
0
  62
221
  6
CONTINUOUS
  0
LAYER
  2
YELLOW3
  70
0
  62
2
  6
CONTINUOUS
  0
LAYER
  2
BLUE4
  70
0
  62
5
  6
CONTINUOUS
  0
LAYER
  2
GREEN4
  70
0
  62
3
  6
CONTINUOUS
  0
LAYER
  2
CYAN4
  70
0
  62
4
  6
CONTINUOUS
  0
LAYER
  2
RED4
  70
0
  62
1
  6
CONTINUOUS
  0
LAYER
  2
MAGENTA4
  70
0
  62
6
  6
CONTINUOUS
  0
LAYER
  2
YELLOW4
  70
0
  62
2
  6
CONTINUOUS
  0
ENDTAB
  0
ENDSEC
  0
SECTION
  2
ENTITIES
0
LINE
8
BLACK
6
CONTINUOUS
10
212.141
20
-57.0621
11
212.168
21
-57.0847
0
LINE
8
BLACK
6
CONTINUOUS
10
212.168
20
-57.0847
11
212.185
21
-57.1153
0
LINE
8
BLACK
6
CONTINUOUS
10
212.185
20
-57.1153
11
212.19
21
-57.1413
0
LINE
8
BLACK
6
CONTINUOUS
10
212.19
20
-57.1413
11
212.19
21
-129.549
0
LINE
8
BLACK
6
CONTINUOUS
10
212.19
20
-129.549
11
212.185
21
-129.575
0
LINE
8
BLACK
6
CONTINUOUS
10
212.185
20
-129.575
11
212.168
21
-129.605
0
LINE
8
BLACK
6
CONTINUOUS
10
212.168
20
-129.605
11
212.141
21
-129.628
0
LINE
8
BLACK
6
CONTINUOUS
10
212.141
20
-129.628
11
212.108
21
-129.64
0
LINE
8
BLACK
6
CONTINUOUS
10
212.108
20
-129.64
11
212.072
21
-129.64
0
LINE
8
BLACK
6
CONTINUOUS
10
212.072
20
-129.64
11
212.039
21
-129.628
0
LINE
8
BLACK
6
CONTINUOUS
10
212.039
20
-129.628
11
212.024
21
-129.615
0
LINE
8
BLACK
6
CONTINUOUS
10
212.024
20
-129.615
11
110.483
21
-129.615
0
LINE
8
BLACK
6
CONTINUOUS
10
110.483
20
-129.615
11
110.483
21
-129.615
0
LINE
8
BLACK
6
CONTINUOUS
10
110.483
20
-129.615
11
110.477
21
-129.615
0
LINE
8
BLACK
6
CONTINUOUS
10
110.477
20
-129.615
11
110.471
21
-129.613
0
LINE
8
BLACK
6
CONTINUOUS
10
110.471
20
-129.613
11
110.464
21
-129.612
0
LINE
8
BLACK
6
CONTINUOUS
10
110.464
20
-129.612
11
110.458
21
-129.608
0
LINE
8
BLACK
6
CONTINUOUS
10
110.458
20
-129.608
11
110.452
21
-129.606
0
LINE
8
BLACK
6
CONTINUOUS
10
110.452
20
-129.606
11
110.447
21
-129.602
0
LINE
8
BLACK
6
CONTINUOUS
10
110.447
20
-129.602
11
110.441
21
-129.598
0
LINE
8
BLACK
6
CONTINUOUS
10
110.441
20
-129.598
11
110.437
21
-129.593
0
LINE
8
BLACK
6
CONTINUOUS
10
110.437
20
-129.593
11
110.432
21
-129.589
0
LINE
8
BLACK
6
CONTINUOUS
10
110.432
20
-129.589
11
110.428
21
-129.583
0
LINE
8
BLACK
6
CONTINUOUS
10
110.428
20
-129.583
11
110.424
21
-129.578
0
LINE
8
BLACK
6
CONTINUOUS
10
110.424
20
-129.578
11
110.422
21
-129.572
0
LINE
8
BLACK
6
CONTINUOUS
10
110.422
20
-129.572
11
110.418
21
-129.566
0
LINE
8
BLACK
6
CONTINUOUS
10
110.418
20
-129.566
11
110.417
21
-129.559
0
LINE
8
BLACK
6
CONTINUOUS
10
110.417
20
-129.559
11
110.415
21
-129.553
0
LINE
8
BLACK
6
CONTINUOUS
10
110.415
20
-129.553
11
110.415
21
-129.547
0
LINE
8
BLACK
6
CONTINUOUS
10
110.415
20
-129.547
11
110.415
21
-129.547
0
LINE
8
BLACK
6
CONTINUOUS
10
110.415
20
-129.547
11
110.415
21
-57.1434
0
LINE
8
BLACK
6
CONTINUOUS
10
110.415
20
-57.1434
11
110.415
21
-57.1368
0
LINE
8
BLACK
6
CONTINUOUS
10
110.415
20
-57.1368
11
110.417
21
-57.1305
0
LINE
8
BLACK
6
CONTINUOUS
10
110.417
20
-57.1305
11
110.418
21
-57.124
0
LINE
8
BLACK
6
CONTINUOUS
10
110.418
20
-57.124
11
110.422
21
-57.1182
0
LINE
8
BLACK
6
CONTINUOUS
10
110.422
20
-57.1182
11
110.424
21
-57.1119
0
LINE
8
BLACK
6
CONTINUOUS
10
110.424
20
-57.1119
11
110.428
21
-57.1068
0
LINE
8
BLACK
6
CONTINUOUS
10
110.428
20
-57.1068
11
110.432
21
-57.101
0
LINE
8
BLACK
6
CONTINUOUS
10
110.432
20
-57.101
11
110.437
21
-57.0968
0
LINE
8
BLACK
6
CONTINUOUS
10
110.437
20
-57.0968
11
110.441
21
-57.0917
0
LINE
8
BLACK
6
CONTINUOUS
10
110.441
20
-57.0917
11
110.447
21
-57.0883
0
LINE
8
BLACK
6
CONTINUOUS
10
110.447
20
-57.0883
11
110.452
21
-57.084
0
LINE
8
BLACK
6
CONTINUOUS
10
110.452
20
-57.084
11
110.458
21
-57.0818
0
LINE
8
BLACK
6
CONTINUOUS
10
110.458
20
-57.0818
11
110.464
21
-57.0784
0
LINE
8
BLACK
6
CONTINUOUS
10
110.464
20
-57.0784
11
110.471
21
-57.0773
0
LINE
8
BLACK
6
CONTINUOUS
10
110.471
20
-57.0773
11
110.477
21
-57.075
0
LINE
8
BLACK
6
CONTINUOUS
10
110.477
20
-57.075
11
110.483
21
-57.075
0
LINE
8
BLACK
6
CONTINUOUS
10
110.483
20
-57.075
11
110.483
21
-57.075
0
LINE
8
BLACK
6
CONTINUOUS
10
110.483
20
-57.075
11
212.024
21
-57.075
0
LINE
8
BLACK
6
CONTINUOUS
10
212.024
20
-57.075
11
212.039
21
-57.0621
0
LINE
8
BLACK
6
CONTINUOUS
10
212.039
20
-57.0621
11
212.072
21
-57.05
0
LINE
8
BLACK
6
CONTINUOUS
10
212.072
20
-57.05
11
212.108
21
-57.05
0
LINE
8
BLACK
6
CONTINUOUS
10
212.108
20
-57.05
11
212.141
21
-57.0621
0
LINE
8
BLACK
6
CONTINUOUS
10
110.565
20
-57.225
11
110.565
21
-129.465
0
LINE
8
BLACK
6
CONTINUOUS
10
110.565
20
-129.465
11
211.99
21
-129.465
0
LINE
8
BLACK
6
CONTINUOUS
10
211.99
20
-129.465
11
211.99
21
-57.225
0
LINE
8
BLACK
6
CONTINUOUS
10
211.99
20
-57.225
11
110.565
21
-57.225
  0
ENDSEC
  0
EOF
